<?xml version="1.0" encoding="UTF-8" standalone="no"?>
<!DOCTYPE svg PUBLIC "-//W3C//DTD SVG 1.1//EN"
 "http://www.w3.org/Graphics/SVG/1.1/DTD/svg11.dtd">
<!-- Generated by graphviz version 2.36.0 (20140111.2315)
 -->
<!-- Title: G Pages: 1 -->
<svg width="488pt" height="1516pt"
 viewBox="0.00 0.00 488.00 1516.00" xmlns="http://www.w3.org/2000/svg" xmlns:xlink="http://www.w3.org/1999/xlink">
<g id="graph0" class="graph" transform="scale(1 1) rotate(0) translate(4 1512)">
<title>G</title>
<polygon fill="white" stroke="none" points="-4,4 -4,-1512 484,-1512 484,4 -4,4"/>
<!-- n1 -->
<g id="node1" class="node"><title>n1</title>
<g id="a_node1"><a xlink:title="[annotation.lua]:13">
<ellipse fill="yellow" stroke="green" cx="245" cy="-160" rx="125.298" ry="48.1667"/>
<text text-anchor="middle" x="245" y="-178.8" font-family="Times,serif" font-size="14.00">L3 (1)</text>
<text text-anchor="start" x="164" y="-163.8" font-family="Times,serif" font-size="14.00">input = {Tensor[160]}</text>
<text text-anchor="start" x="164" y="-148.8" font-family="Times,serif" font-size="14.00">module = nn.Tanh</text>
<text text-anchor="middle" x="245" y="-133.8" font-family="Times,serif" font-size="14.00">gradOutput = {Tensor[160]}</text>
</a>
</g>
</g>
<!-- n2 -->
<g id="node2" class="node"><title>n2</title>
<g id="a_node2"><a xlink:title="[[C]]:&#45;1">
<ellipse fill="none" stroke="black" cx="245" cy="-38" rx="125.298" ry="37.4533"/>
<text text-anchor="middle" x="245" y="-49.3" font-family="Times,serif" font-size="14.00">Node2</text>
<text text-anchor="start" x="164" y="-34.3" font-family="Times,serif" font-size="14.00">input = {Tensor[160]}</text>
<text text-anchor="middle" x="245" y="-19.3" font-family="Times,serif" font-size="14.00">gradOutput = {Tensor[160]}</text>
</a>
</g>
</g>
<!-- n1&#45;&gt;n2 -->
<g id="edge1" class="edge"><title>n1&#45;&gt;n2</title>
<path fill="none" stroke="black" d="M245,-111.573C245,-103.096 245,-94.269 245,-85.8099"/>
<polygon fill="black" stroke="black" points="248.5,-85.7224 245,-75.7224 241.5,-85.7224 248.5,-85.7224"/>
</g>
<!-- n3 -->
<g id="node3" class="node"><title>n3</title>
<g id="a_node3"><a xlink:title="[annotation.lua]:13">
<ellipse fill="none" stroke="black" cx="245" cy="-292" rx="135.086" ry="48.1667"/>
<text text-anchor="middle" x="245" y="-310.8" font-family="Times,serif" font-size="14.00">Node3</text>
<text text-anchor="start" x="157.5" y="-295.8" font-family="Times,serif" font-size="14.00">input = {Tensor[80]}</text>
<text text-anchor="start" x="157.5" y="-280.8" font-family="Times,serif" font-size="14.00">module = nn.Linear(80 &#45;&gt; 160)</text>
<text text-anchor="middle" x="245" y="-265.8" font-family="Times,serif" font-size="14.00">gradOutput = {Tensor[160]}</text>
</a>
</g>
</g>
<!-- n3&#45;&gt;n1 -->
<g id="edge2" class="edge"><title>n3&#45;&gt;n1</title>
<path fill="none" stroke="black" d="M245,-243.699C245,-235.544 245,-226.987 245,-218.597"/>
<polygon fill="black" stroke="black" points="248.5,-218.483 245,-208.483 241.5,-218.483 248.5,-218.483"/>
</g>
<!-- n4 -->
<g id="node4" class="node"><title>n4</title>
<g id="a_node4"><a xlink:title="[annotation.lua]:13">
<ellipse fill="none" stroke="black" cx="245" cy="-435" rx="142.254" ry="58.8803"/>
<text text-anchor="middle" x="245" y="-461.3" font-family="Times,serif" font-size="14.00">Node4</text>
<text text-anchor="start" x="152" y="-446.3" font-family="Times,serif" font-size="14.00">input = {Tensor[20],Tensor[60]}</text>
<text text-anchor="start" x="152" y="-431.3" font-family="Times,serif" font-size="14.00">module = nn.JoinTable</text>
<text text-anchor="start" x="152" y="-416.3" font-family="Times,serif" font-size="14.00">mapindex = {Node5,Node6}</text>
<text text-anchor="middle" x="245" y="-401.3" font-family="Times,serif" font-size="14.00">gradOutput = {Tensor[80]}</text>
</a>
</g>
</g>
<!-- n4&#45;&gt;n3 -->
<g id="edge3" class="edge"><title>n4&#45;&gt;n3</title>
<path fill="none" stroke="black" d="M245,-376.243C245,-367.7 245,-358.899 245,-350.364"/>
<polygon fill="black" stroke="black" points="248.5,-350.121 245,-340.121 241.5,-350.121 248.5,-350.121"/>
</g>
<!-- n5 -->
<g id="node5" class="node"><title>n5</title>
<g id="a_node5"><a xlink:title="[annotation.lua]:5">
<ellipse fill="none" stroke="red" cx="167" cy="-1040" rx="167.376" ry="69.0935"/>
<text text-anchor="middle" x="167" y="-1073.8" font-family="Times,serif" font-size="14.00">L1 (5)</text>
<text text-anchor="middle" x="167" y="-1058.8" font-family="Times,serif" font-size="14.00">desc = Level 1 Node</text>
<text text-anchor="start" x="56.5" y="-1043.8" font-family="Times,serif" font-size="14.00">input = {Tensor[20]}</text>
<text text-anchor="start" x="56.5" y="-1028.8" font-family="Times,serif" font-size="14.00">module = nn.Tanh</text>
<text text-anchor="start" x="56.5" y="-1013.8" font-family="Times,serif" font-size="14.00">gradOutputBuffer = Tensor[20]</text>
<text text-anchor="middle" x="167" y="-998.8" font-family="Times,serif" font-size="14.00">gradOutput = {Tensor[20],Tensor[20]}</text>
</a>
</g>
</g>
<!-- n5&#45;&gt;n4 -->
<g id="edge4" class="edge"><title>n5&#45;&gt;n4</title>
<path fill="none" stroke="black" d="M160.894,-970.72C154.152,-871.521 149.388,-682.722 193,-530 195.794,-520.215 199.76,-510.331 204.27,-500.835"/>
<polygon fill="black" stroke="black" points="207.412,-502.376 208.741,-491.865 201.147,-499.254 207.412,-502.376"/>
</g>
<!-- n10 -->
<g id="node10" class="node"><title>n10</title>
<g id="a_node10"><a xlink:title="[annotation.lua]:9">
<ellipse fill="none" stroke="black" cx="338" cy="-875" rx="142.254" ry="58.8803"/>
<text text-anchor="middle" x="338" y="-901.3" font-family="Times,serif" font-size="14.00">Node10</text>
<text text-anchor="start" x="245" y="-886.3" font-family="Times,serif" font-size="14.00">input = {Tensor[10],Tensor[20]}</text>
<text text-anchor="start" x="245" y="-871.3" font-family="Times,serif" font-size="14.00">module = nn.JoinTable</text>
<text text-anchor="start" x="245" y="-856.3" font-family="Times,serif" font-size="14.00">mapindex = {Node9,Node5}</text>
<text text-anchor="middle" x="338" y="-841.3" font-family="Times,serif" font-size="14.00">gradOutput = {Tensor[30]}</text>
</a>
</g>
</g>
<!-- n5&#45;&gt;n10 -->
<g id="edge12" class="edge"><title>n5&#45;&gt;n10</title>
<path fill="none" stroke="black" d="M233.113,-975.98C246.832,-962.903 261.253,-949.156 274.862,-936.184"/>
<polygon fill="black" stroke="black" points="277.505,-938.5 282.329,-929.067 272.676,-933.433 277.505,-938.5"/>
</g>
<!-- n6 -->
<g id="node6" class="node"><title>n6</title>
<g id="a_node6"><a xlink:title="[annotation.lua]:9">
<ellipse fill="none" stroke="blue" cx="323" cy="-589" rx="120.373" ry="58.8803"/>
<text text-anchor="middle" x="323" y="-615.3" font-family="Times,serif" font-size="14.00" fill="green">L2 (6)</text>
<text text-anchor="middle" x="323" y="-600.3" font-family="Times,serif" font-size="14.00" fill="green">desc = Level 2 Node</text>
<text text-anchor="start" x="245.5" y="-585.3" font-family="Times,serif" font-size="14.00" fill="green">input = {Tensor[60]}</text>
<text text-anchor="start" x="245.5" y="-570.3" font-family="Times,serif" font-size="14.00" fill="green">module = nn.Tanh</text>
<text text-anchor="middle" x="323" y="-555.3" font-family="Times,serif" font-size="14.00" fill="green">gradOutput = {Tensor[60]}</text>
</a>
</g>
</g>
<!-- n6&#45;&gt;n4 -->
<g id="edge5" class="edge"><title>n6&#45;&gt;n4</title>
<path fill="none" stroke="black" d="M294.177,-531.833C289.16,-522.056 283.901,-511.808 278.766,-501.801"/>
<polygon fill="black" stroke="black" points="281.775,-499.997 274.095,-492.698 275.547,-503.193 281.775,-499.997"/>
</g>
<!-- n7 -->
<g id="node7" class="node"><title>n7</title>
<g id="a_node7"><a xlink:title="[annotation.lua]:5">
<ellipse fill="none" stroke="black" cx="186" cy="-1194" rx="130.162" ry="48.1667"/>
<text text-anchor="middle" x="186" y="-1212.8" font-family="Times,serif" font-size="14.00">Node7</text>
<text text-anchor="start" x="102" y="-1197.8" font-family="Times,serif" font-size="14.00">input = {Tensor[10]}</text>
<text text-anchor="start" x="102" y="-1182.8" font-family="Times,serif" font-size="14.00">module = nn.Linear(10 &#45;&gt; 20)</text>
<text text-anchor="middle" x="186" y="-1167.8" font-family="Times,serif" font-size="14.00">gradOutput = {Tensor[20]}</text>
</a>
</g>
</g>
<!-- n7&#45;&gt;n5 -->
<g id="edge6" class="edge"><title>n7&#45;&gt;n5</title>
<path fill="none" stroke="black" d="M180.092,-1145.74C179.048,-1137.38 177.935,-1128.48 176.816,-1119.53"/>
<polygon fill="black" stroke="black" points="180.268,-1118.92 175.554,-1109.43 173.322,-1119.79 180.268,-1118.92"/>
</g>
<!-- n8 -->
<g id="node8" class="node"><title>n8</title>
<g id="a_node8"><a xlink:title="[annotation.lua]:9">
<ellipse fill="none" stroke="black" cx="331" cy="-732" rx="130.162" ry="48.1667"/>
<text text-anchor="middle" x="331" y="-750.8" font-family="Times,serif" font-size="14.00">Node8</text>
<text text-anchor="start" x="247" y="-735.8" font-family="Times,serif" font-size="14.00">input = {Tensor[30]}</text>
<text text-anchor="start" x="247" y="-720.8" font-family="Times,serif" font-size="14.00">module = nn.Linear(30 &#45;&gt; 60)</text>
<text text-anchor="middle" x="331" y="-705.8" font-family="Times,serif" font-size="14.00">gradOutput = {Tensor[60]}</text>
</a>
</g>
</g>
<!-- n8&#45;&gt;n6 -->
<g id="edge7" class="edge"><title>n8&#45;&gt;n6</title>
<path fill="none" stroke="black" d="M328.314,-683.657C327.844,-675.376 327.347,-666.617 326.853,-657.909"/>
<polygon fill="black" stroke="black" points="330.337,-657.53 326.276,-647.744 323.348,-657.926 330.337,-657.53"/>
</g>
<!-- n9 -->
<g id="node9" class="node"><title>n9</title>
<g id="a_node9"><a xlink:title="[annotation.lua]:4">
<ellipse fill="none" stroke="black" cx="284" cy="-1337" rx="167.376" ry="58.8803"/>
<text text-anchor="middle" x="284" y="-1363.3" font-family="Times,serif" font-size="14.00">Node9</text>
<text text-anchor="start" x="173.5" y="-1348.3" font-family="Times,serif" font-size="14.00">input = {Tensor[10]}</text>
<text text-anchor="start" x="173.5" y="-1333.3" font-family="Times,serif" font-size="14.00">module = nn.Identity</text>
<text text-anchor="start" x="173.5" y="-1318.3" font-family="Times,serif" font-size="14.00">gradOutputBuffer = Tensor[10]</text>
<text text-anchor="middle" x="284" y="-1303.3" font-family="Times,serif" font-size="14.00">gradOutput = {Tensor[10],Tensor[10]}</text>
</a>
</g>
</g>
<!-- n9&#45;&gt;n7 -->
<g id="edge8" class="edge"><title>n9&#45;&gt;n7</title>
<path fill="none" stroke="black" d="M244.986,-1279.87C237.98,-1269.79 230.69,-1259.3 223.722,-1249.27"/>
<polygon fill="black" stroke="black" points="226.539,-1247.19 217.957,-1240.98 220.791,-1251.19 226.539,-1247.19"/>
</g>
<!-- n9&#45;&gt;n10 -->
<g id="edge11" class="edge"><title>n9&#45;&gt;n10</title>
<path fill="none" stroke="black" d="M311.836,-1279C316.847,-1267 321.563,-1254.26 325,-1242 353.285,-1141.14 350.548,-1018.51 345.003,-943.909"/>
<polygon fill="black" stroke="black" points="348.475,-943.404 344.205,-933.708 341.496,-943.95 348.475,-943.404"/>
</g>
<!-- n10&#45;&gt;n8 -->
<g id="edge9" class="edge"><title>n10&#45;&gt;n8</title>
<path fill="none" stroke="black" d="M335.133,-816.243C334.709,-807.7 334.272,-798.899 333.848,-790.364"/>
<polygon fill="black" stroke="black" points="337.331,-789.935 333.339,-780.121 330.34,-790.282 337.331,-789.935"/>
</g>
<!-- n11 -->
<g id="node11" class="node"><title>n11</title>
<g id="a_node11"><a xlink:title="[[C]]:&#45;1">
<ellipse fill="none" stroke="black" cx="284" cy="-1470" rx="120.373" ry="37.4533"/>
<text text-anchor="middle" x="284" y="-1481.3" font-family="Times,serif" font-size="14.00">Node11</text>
<text text-anchor="start" x="206.5" y="-1466.3" font-family="Times,serif" font-size="14.00">input = {Tensor[10]}</text>
<text text-anchor="middle" x="284" y="-1451.3" font-family="Times,serif" font-size="14.00">gradOutput = {Tensor[10]}</text>
</a>
</g>
</g>
<!-- n11&#45;&gt;n9 -->
<g id="edge10" class="edge"><title>n11&#45;&gt;n9</title>
<path fill="none" stroke="black" d="M284,-1432.51C284,-1424.26 284,-1415.24 284,-1406.15"/>
<polygon fill="black" stroke="black" points="287.5,-1405.9 284,-1395.9 280.5,-1405.9 287.5,-1405.9"/>
</g>
</g>
</svg>
