<?xml version="1.0" encoding="UTF-8" standalone="no"?>
<!DOCTYPE svg PUBLIC "-//W3C//DTD SVG 1.1//EN"
 "http://www.w3.org/Graphics/SVG/1.1/DTD/svg11.dtd">
<!-- Generated by graphviz version 2.36.0 (20140111.2315)
 -->
<!-- Title: G Pages: 1 -->
<svg width="488pt" height="1516pt"
 viewBox="0.00 0.00 488.00 1516.00" xmlns="http://www.w3.org/2000/svg" xmlns:xlink="http://www.w3.org/1999/xlink">
<g id="graph0" class="graph" transform="scale(1 1) rotate(0) translate(4 1512)">
<title>G</title>
<polygon fill="white" stroke="none" points="-4,4 -4,-1512 484,-1512 484,4 -4,4"/>
<!-- n1 -->
<g id="node1" class="node"><title>n1</title>
<g id="a_node1"><a xlink:title="[[C]]:&#45;1">
<ellipse fill="none" stroke="black" cx="243" cy="-1470" rx="125.298" ry="37.4533"/>
<text text-anchor="middle" x="243" y="-1481.3" font-family="Times,serif" font-size="14.00">Node1</text>
<text text-anchor="start" x="162" y="-1466.3" font-family="Times,serif" font-size="14.00">input = {Tensor[160]}</text>
<text text-anchor="middle" x="243" y="-1451.3" font-family="Times,serif" font-size="14.00">gradOutput = {Tensor[160]}</text>
</a>
</g>
</g>
<!-- n2 -->
<g id="node2" class="node"><title>n2</title>
<g id="a_node2"><a xlink:title="[annotation.lua]:13">
<ellipse fill="yellow" stroke="green" cx="243" cy="-1348" rx="125.298" ry="48.1667"/>
<text text-anchor="middle" x="243" y="-1366.8" font-family="Times,serif" font-size="14.00">L3 (2)</text>
<text text-anchor="start" x="162" y="-1351.8" font-family="Times,serif" font-size="14.00">input = {Tensor[160]}</text>
<text text-anchor="start" x="162" y="-1336.8" font-family="Times,serif" font-size="14.00">module = nn.Tanh</text>
<text text-anchor="middle" x="243" y="-1321.8" font-family="Times,serif" font-size="14.00">gradOutput = {Tensor[160]}</text>
</a>
</g>
</g>
<!-- n1&#45;&gt;n2 -->
<g id="edge1" class="edge"><title>n1&#45;&gt;n2</title>
<path fill="none" stroke="black" d="M243,-1432.34C243,-1424.22 243,-1415.42 243,-1406.68"/>
<polygon fill="black" stroke="black" points="246.5,-1406.5 243,-1396.5 239.5,-1406.5 246.5,-1406.5"/>
</g>
<!-- n3 -->
<g id="node3" class="node"><title>n3</title>
<g id="a_node3"><a xlink:title="[annotation.lua]:13">
<ellipse fill="none" stroke="black" cx="243" cy="-1216" rx="135.086" ry="48.1667"/>
<text text-anchor="middle" x="243" y="-1234.8" font-family="Times,serif" font-size="14.00">Node3</text>
<text text-anchor="start" x="155.5" y="-1219.8" font-family="Times,serif" font-size="14.00">input = {Tensor[80]}</text>
<text text-anchor="start" x="155.5" y="-1204.8" font-family="Times,serif" font-size="14.00">module = nn.Linear(80 &#45;&gt; 160)</text>
<text text-anchor="middle" x="243" y="-1189.8" font-family="Times,serif" font-size="14.00">gradOutput = {Tensor[160]}</text>
</a>
</g>
</g>
<!-- n2&#45;&gt;n3 -->
<g id="edge2" class="edge"><title>n2&#45;&gt;n3</title>
<path fill="none" stroke="black" d="M243,-1299.7C243,-1291.54 243,-1282.99 243,-1274.6"/>
<polygon fill="black" stroke="black" points="246.5,-1274.48 243,-1264.48 239.5,-1274.48 246.5,-1274.48"/>
</g>
<!-- n4 -->
<g id="node4" class="node"><title>n4</title>
<g id="a_node4"><a xlink:title="[annotation.lua]:13">
<ellipse fill="none" stroke="black" cx="243" cy="-1073" rx="142.254" ry="58.8803"/>
<text text-anchor="middle" x="243" y="-1099.3" font-family="Times,serif" font-size="14.00">Node4</text>
<text text-anchor="start" x="150" y="-1084.3" font-family="Times,serif" font-size="14.00">input = {Tensor[20],Tensor[60]}</text>
<text text-anchor="start" x="150" y="-1069.3" font-family="Times,serif" font-size="14.00">module = nn.JoinTable</text>
<text text-anchor="start" x="150" y="-1054.3" font-family="Times,serif" font-size="14.00">mapindex = {Node5,Node6}</text>
<text text-anchor="middle" x="243" y="-1039.3" font-family="Times,serif" font-size="14.00">gradOutput = {Tensor[80]}</text>
</a>
</g>
</g>
<!-- n3&#45;&gt;n4 -->
<g id="edge3" class="edge"><title>n3&#45;&gt;n4</title>
<path fill="none" stroke="black" d="M243,-1167.66C243,-1159.38 243,-1150.62 243,-1141.91"/>
<polygon fill="black" stroke="black" points="246.5,-1141.74 243,-1131.74 239.5,-1141.74 246.5,-1141.74"/>
</g>
<!-- n5 -->
<g id="node5" class="node"><title>n5</title>
<g id="a_node5"><a xlink:title="[annotation.lua]:5">
<ellipse fill="none" stroke="red" cx="167" cy="-468" rx="167.376" ry="69.0935"/>
<text text-anchor="middle" x="167" y="-501.8" font-family="Times,serif" font-size="14.00">L1 (5)</text>
<text text-anchor="middle" x="167" y="-486.8" font-family="Times,serif" font-size="14.00">desc = Level 1 Node</text>
<text text-anchor="start" x="56.5" y="-471.8" font-family="Times,serif" font-size="14.00">input = {Tensor[20]}</text>
<text text-anchor="start" x="56.5" y="-456.8" font-family="Times,serif" font-size="14.00">module = nn.Tanh</text>
<text text-anchor="start" x="56.5" y="-441.8" font-family="Times,serif" font-size="14.00">gradOutputBuffer = Tensor[20]</text>
<text text-anchor="middle" x="167" y="-426.8" font-family="Times,serif" font-size="14.00">gradOutput = {Tensor[20],Tensor[20]}</text>
</a>
</g>
</g>
<!-- n4&#45;&gt;n5 -->
<g id="edge4" class="edge"><title>n4&#45;&gt;n5</title>
<path fill="none" stroke="black" d="M205.982,-1016.22C199.538,-1004.07 193.718,-990.966 190,-978 147.683,-830.437 152.169,-649.034 159.45,-547.48"/>
<polygon fill="black" stroke="black" points="162.955,-547.537 160.208,-537.304 155.975,-547.017 162.955,-547.537"/>
</g>
<!-- n6 -->
<g id="node6" class="node"><title>n6</title>
<g id="a_node6"><a xlink:title="[annotation.lua]:9">
<ellipse fill="none" stroke="blue" cx="320" cy="-919" rx="120.373" ry="58.8803"/>
<text text-anchor="middle" x="320" y="-945.3" font-family="Times,serif" font-size="14.00" fill="green">L2 (6)</text>
<text text-anchor="middle" x="320" y="-930.3" font-family="Times,serif" font-size="14.00" fill="green">desc = Level 2 Node</text>
<text text-anchor="start" x="242.5" y="-915.3" font-family="Times,serif" font-size="14.00" fill="green">input = {Tensor[60]}</text>
<text text-anchor="start" x="242.5" y="-900.3" font-family="Times,serif" font-size="14.00" fill="green">module = nn.Tanh</text>
<text text-anchor="middle" x="320" y="-885.3" font-family="Times,serif" font-size="14.00" fill="green">gradOutput = {Tensor[60]}</text>
</a>
</g>
</g>
<!-- n4&#45;&gt;n6 -->
<g id="edge5" class="edge"><title>n4&#45;&gt;n6</title>
<path fill="none" stroke="black" d="M271.672,-1015.4C276.648,-1005.58 281.859,-995.292 286.94,-985.261"/>
<polygon fill="black" stroke="black" points="290.164,-986.643 291.56,-976.14 283.919,-983.479 290.164,-986.643"/>
</g>
<!-- n7 -->
<g id="node7" class="node"><title>n7</title>
<g id="a_node7"><a xlink:title="[annotation.lua]:5">
<ellipse fill="none" stroke="black" cx="186" cy="-314" rx="130.162" ry="48.1667"/>
<text text-anchor="middle" x="186" y="-332.8" font-family="Times,serif" font-size="14.00">Node7</text>
<text text-anchor="start" x="102" y="-317.8" font-family="Times,serif" font-size="14.00">input = {Tensor[10]}</text>
<text text-anchor="start" x="102" y="-302.8" font-family="Times,serif" font-size="14.00">module = nn.Linear(10 &#45;&gt; 20)</text>
<text text-anchor="middle" x="186" y="-287.8" font-family="Times,serif" font-size="14.00">gradOutput = {Tensor[20]}</text>
</a>
</g>
</g>
<!-- n5&#45;&gt;n7 -->
<g id="edge6" class="edge"><title>n5&#45;&gt;n7</title>
<path fill="none" stroke="black" d="M175.555,-398.559C176.66,-389.724 177.781,-380.751 178.859,-372.125"/>
<polygon fill="black" stroke="black" points="182.334,-372.543 180.102,-362.186 175.388,-371.674 182.334,-372.543"/>
</g>
<!-- n8 -->
<g id="node8" class="node"><title>n8</title>
<g id="a_node8"><a xlink:title="[annotation.lua]:9">
<ellipse fill="none" stroke="black" cx="331" cy="-776" rx="130.162" ry="48.1667"/>
<text text-anchor="middle" x="331" y="-794.8" font-family="Times,serif" font-size="14.00">Node8</text>
<text text-anchor="start" x="247" y="-779.8" font-family="Times,serif" font-size="14.00">input = {Tensor[30]}</text>
<text text-anchor="start" x="247" y="-764.8" font-family="Times,serif" font-size="14.00">module = nn.Linear(30 &#45;&gt; 60)</text>
<text text-anchor="middle" x="331" y="-749.8" font-family="Times,serif" font-size="14.00">gradOutput = {Tensor[60]}</text>
</a>
</g>
</g>
<!-- n6&#45;&gt;n8 -->
<g id="edge7" class="edge"><title>n6&#45;&gt;n8</title>
<path fill="none" stroke="black" d="M324.506,-860.243C325.172,-851.7 325.859,-842.899 326.525,-834.364"/>
<polygon fill="black" stroke="black" points="330.035,-834.363 327.324,-824.121 323.057,-833.818 330.035,-834.363"/>
</g>
<!-- n9 -->
<g id="node9" class="node"><title>n9</title>
<g id="a_node9"><a xlink:title="[annotation.lua]:4">
<ellipse fill="none" stroke="black" cx="274" cy="-171" rx="167.376" ry="58.8803"/>
<text text-anchor="middle" x="274" y="-197.3" font-family="Times,serif" font-size="14.00">Node9</text>
<text text-anchor="start" x="163.5" y="-182.3" font-family="Times,serif" font-size="14.00">input = {Tensor[10]}</text>
<text text-anchor="start" x="163.5" y="-167.3" font-family="Times,serif" font-size="14.00">module = nn.Identity</text>
<text text-anchor="start" x="163.5" y="-152.3" font-family="Times,serif" font-size="14.00">gradOutputBuffer = Tensor[10]</text>
<text text-anchor="middle" x="274" y="-137.3" font-family="Times,serif" font-size="14.00">gradOutput = {Tensor[10],Tensor[10]}</text>
</a>
</g>
</g>
<!-- n7&#45;&gt;n9 -->
<g id="edge8" class="edge"><title>n7&#45;&gt;n9</title>
<path fill="none" stroke="black" d="M214.814,-266.831C220.707,-257.389 227.015,-247.283 233.235,-237.317"/>
<polygon fill="black" stroke="black" points="236.341,-238.95 238.667,-228.614 230.403,-235.244 236.341,-238.95"/>
</g>
<!-- n10 -->
<g id="node10" class="node"><title>n10</title>
<g id="a_node10"><a xlink:title="[annotation.lua]:9">
<ellipse fill="none" stroke="black" cx="338" cy="-633" rx="142.254" ry="58.8803"/>
<text text-anchor="middle" x="338" y="-659.3" font-family="Times,serif" font-size="14.00">Node10</text>
<text text-anchor="start" x="245" y="-644.3" font-family="Times,serif" font-size="14.00">input = {Tensor[10],Tensor[20]}</text>
<text text-anchor="start" x="245" y="-629.3" font-family="Times,serif" font-size="14.00">module = nn.JoinTable</text>
<text text-anchor="start" x="245" y="-614.3" font-family="Times,serif" font-size="14.00">mapindex = {Node9,Node5}</text>
<text text-anchor="middle" x="338" y="-599.3" font-family="Times,serif" font-size="14.00">gradOutput = {Tensor[30]}</text>
</a>
</g>
</g>
<!-- n8&#45;&gt;n10 -->
<g id="edge9" class="edge"><title>n8&#45;&gt;n10</title>
<path fill="none" stroke="black" d="M333.35,-727.657C333.761,-719.376 334.196,-710.617 334.629,-701.909"/>
<polygon fill="black" stroke="black" points="338.133,-701.905 335.133,-691.744 331.142,-701.558 338.133,-701.905"/>
</g>
<!-- n11 -->
<g id="node11" class="node"><title>n11</title>
<g id="a_node11"><a xlink:title="[[C]]:&#45;1">
<ellipse fill="none" stroke="black" cx="274" cy="-38" rx="120.373" ry="37.4533"/>
<text text-anchor="middle" x="274" y="-49.3" font-family="Times,serif" font-size="14.00">Node11</text>
<text text-anchor="start" x="196.5" y="-34.3" font-family="Times,serif" font-size="14.00">input = {Tensor[10]}</text>
<text text-anchor="middle" x="274" y="-19.3" font-family="Times,serif" font-size="14.00">gradOutput = {Tensor[10]}</text>
</a>
</g>
</g>
<!-- n9&#45;&gt;n11 -->
<g id="edge10" class="edge"><title>n9&#45;&gt;n11</title>
<path fill="none" stroke="black" d="M274,-112.16C274,-103.389 274,-94.4321 274,-85.9302"/>
<polygon fill="black" stroke="black" points="277.5,-85.8285 274,-75.8285 270.5,-85.8285 277.5,-85.8285"/>
</g>
<!-- n10&#45;&gt;n5 -->
<g id="edge12" class="edge"><title>n10&#45;&gt;n5</title>
<path fill="none" stroke="black" d="M282.008,-578.628C268.654,-565.898 254.205,-552.125 240.205,-538.78"/>
<polygon fill="black" stroke="black" points="242.587,-536.215 232.933,-531.849 237.757,-541.282 242.587,-536.215"/>
</g>
<!-- n10&#45;&gt;n9 -->
<g id="edge11" class="edge"><title>n10&#45;&gt;n9</title>
<path fill="none" stroke="black" d="M345.61,-574.176C353.142,-500.555 359.167,-370.388 325,-266 321.903,-256.538 317.865,-246.915 313.418,-237.614"/>
<polygon fill="black" stroke="black" points="316.441,-235.833 308.853,-228.438 310.173,-238.951 316.441,-235.833"/>
</g>
</g>
</svg>
